<?xml version="1.0" standalone="no"?>
<svg viewBox="0 0 200 200" xmlns="http://www.w3.org/2000/svg">
  <path fill="#13875F" d="M37.6,-63.4C47.7,-59.4,54.1,-47.2,61.8,-35.2C69.5,-23.3,78.4,-11.7,77.8,-0.4C77.1,10.9,66.8,21.8,56.7,29.5C46.6,37.1,36.6,41.6,27.2,52.5C17.8,63.4,8.9,80.7,-1.8,83.8C-12.5,86.9,-24.9,75.8,-35.3,65.5C-45.7,55.2,-54.1,45.6,-62.3,34.8C-70.4,24,-78.4,12,-82.2,-2.2C-86,-16.4,-85.7,-32.9,-76,-41C-66.3,-49.1,-47.2,-48.9,-33,-50.5C-18.8,-52.1,-9.4,-55.5,2.2,-59.3C13.8,-63.2,27.6,-67.4,37.6,-63.4Z" transform="translate(100 100)" />
</svg>
